HIERARCHY
ROOT root
{
	OFFSET 0.000000 0.000000 0.000000
	CHANNELS 6 Xposition Yposition Zposition Zrotation Yrotation Xrotation
	JOINT lhip
	{
		OFFSET 0.058581 -0.082280 -0.017664
		CHANNELS 3 Zrotation Yrotation Xrotation
		JOINT lknee
		{
			OFFSET 0.043451 -0.386469 0.008037
			CHANNELS 3 Zrotation Yrotation Xrotation
			JOINT lankle
			{
				OFFSET -0.014790 -0.426874 -0.037428
				CHANNELS 3 Zrotation Yrotation Xrotation
				JOINT ltoe
				{
					OFFSET 0.041054 -0.060286 0.122042
					CHANNELS 3 Zrotation Yrotation Xrotation
					End Site
					{
						OFFSET 0.000000 0.000000 0.000000
					}
				}
			}
		}
	}
	JOINT rhip
	{
		OFFSET -0.060310 -0.090513 -0.013543
		CHANNELS 3 Zrotation Yrotation Xrotation
		JOINT rknee
		{
			OFFSET -0.043257 -0.383688 -0.004843
			CHANNELS 3 Zrotation Yrotation Xrotation
			JOINT rankle
			{
				OFFSET 0.019056 -0.420046 -0.034562
				CHANNELS 3 Zrotation Yrotation Xrotation
				JOINT rtoe
				{
					OFFSET -0.034840 -0.062106 0.130323
					CHANNELS 3 Zrotation Yrotation Xrotation
					End Site
					{
						OFFSET 0.000000 0.000000 0.000000
					}
				}
			}
		}
	}
	JOINT lowerback
	{
		OFFSET 0.004439 0.124404 -0.038385
		CHANNELS 3 Zrotation Yrotation Xrotation
		JOINT upperback
		{
			OFFSET 0.004488 0.137956 0.026820
			CHANNELS 3 Zrotation Yrotation Xrotation
			JOINT chest
			{
				OFFSET -0.002265 0.056032 0.002855
				CHANNELS 3 Zrotation Yrotation Xrotation
				JOINT lowerneck
				{
					OFFSET -0.013390 0.211636 -0.033468
					CHANNELS 3 Zrotation Yrotation Xrotation
					JOINT upperneck
					{
						OFFSET 0.010113 0.088937 0.050410
						CHANNELS 3 Zrotation Yrotation Xrotation
						End Site
						{
							OFFSET 0.000000 0.000000 0.000000
						}
					}
				}
				JOINT lclavicle
				{
					OFFSET 0.071702 0.114000 -0.018898
					CHANNELS 3 Zrotation Yrotation Xrotation
					JOINT lshoulder
					{
						OFFSET 0.122921 0.045205 -0.019046
						CHANNELS 3 Zrotation Yrotation Xrotation
						JOINT lelbow
						{
							OFFSET 0.255332 -0.015649 -0.022946
							CHANNELS 3 Zrotation Yrotation Xrotation
							JOINT lwrist
							{
								OFFSET 0.265709 0.012698 -0.007375
								CHANNELS 3 Zrotation Yrotation Xrotation
								End Site
								{
									OFFSET 0.000000 0.000000 0.000000
								}
							}
						}
					}
				}
				JOINT rclavicle
				{
					OFFSET -0.082954 0.112472 -0.023707
					CHANNELS 3 Zrotation Yrotation Xrotation
					JOINT rshoulder
					{
						OFFSET -0.113228 0.046853 -0.008472
						CHANNELS 3 Zrotation Yrotation Xrotation
						JOINT relbow
						{
							OFFSET -0.260127 -0.014369 -0.031269
							CHANNELS 3 Zrotation Yrotation Xrotation
							JOINT rwrist
							{
								OFFSET -0.269108 0.006794 -0.006027
								CHANNELS 3 Zrotation Yrotation Xrotation
								End Site
								{
									OFFSET 0.000000 0.000000 0.000000
								}
							}
						}
					}
				}
			}
		}
	}
}
MOTION
Frames: 13
Frame Time: 0.033333
1.803919 0.750441 0.963901 -87.315619 3.226825 94.483153 2.622914 -6.367820 -18.825854 -6.343445 -13.784574 29.586707 3.480861 14.596128 -28.943758 0.000000 -0.000000 0.000000 4.038031 2.663368 -20.446100 1.793998 2.157726 30.974703 3.547831 -12.474405 -23.579141 0.000000 -0.000000 0.000000 -0.329392 0.537990 19.711512 2.019173 -1.304119 0.407271 1.786584 -1.375901 6.680065 0.637968 5.430137 -13.317132 3.163019 0.931187 -16.470424 -16.158874 10.197131 4.760646 -48.793515 6.287240 8.649695 -7.448458 -36.410031 23.405254 -0.124528 -6.269719 -13.220404 17.853229 -8.682278 1.967155 54.258217 -10.989218 8.018124 -6.066265 22.200393 6.634755 5.966954 2.591654 -4.226884 
1.808420 0.751999 0.946676 -87.439896 3.103368 96.287359 3.576606 -7.305481 -24.707185 -8.060065 -11.435635 36.043607 4.073915 15.137385 -30.891684 0.000000 -0.000000 0.000000 3.126861 3.594886 -26.210645 2.608644 0.848574 37.430479 3.278482 -12.875934 -25.982429 0.000000 -0.000000 0.000000 -0.392523 0.487004 21.427341 2.315004 -0.920084 -0.225287 1.686944 -1.441369 6.748012 0.322390 4.995373 -14.102819 3.075285 0.368133 -18.421807 -15.563929 11.004865 5.341357 -48.565605 7.516007 8.853473 -9.055436 -37.988135 25.311248 -0.646728 -6.146313 -14.240610 17.530343 -9.489299 2.358854 54.066354 -11.719272 7.639374 -6.128775 22.479927 6.875105 6.247582 2.545641 -4.159929 
1.813472 0.753718 0.924202 -87.902481 2.987101 98.399547 4.795927 -7.577092 -31.402629 -9.884516 -8.861867 43.219965 4.507160 15.268984 -33.351962 0.000000 -0.000000 0.000000 1.814504 4.466567 -32.916715 3.503257 -0.747974 44.861254 3.238004 -12.807852 -28.572474 0.000000 -0.000000 0.000000 -0.683204 0.544500 22.551035 2.672724 -0.542871 -0.647246 1.625739 -1.414802 7.001442 0.038537 4.972653 -15.509900 2.751961 -0.353764 -19.950213 -15.637363 11.571242 5.767851 -48.466017 8.329665 9.044435 -9.706879 -39.002256 25.937669 -0.431859 -5.957404 -14.966588 17.623346 -9.784029 2.803934 53.695966 -11.605987 7.531317 -6.186116 22.043110 7.051957 6.334153 2.578001 -3.825869 
1.815400 0.755439 0.898428 -88.160470 2.751817 99.768534 6.056166 -7.721197 -37.449139 -11.417260 -5.664265 50.601868 5.327149 15.410278 -35.092482 0.000000 -0.000000 0.000000 0.588976 4.874849 -38.487302 3.864913 -2.342035 52.163560 2.838924 -12.728728 -31.351740 0.000000 -0.000000 0.000000 -1.076452 0.609972 24.206776 2.958881 -0.432749 -1.119620 1.583042 -1.508664 6.895136 0.177324 4.538692 -16.351301 2.754875 -0.994461 -20.893742 -16.432990 11.771281 6.049241 -48.513840 9.039020 8.935294 -8.871242 -39.588443 25.009731 -0.209767 -5.554571 -15.396235 18.300492 -9.377680 3.242546 53.261021 -11.197813 7.271520 -6.573125 21.023604 6.893683 6.674077 2.233885 -3.421469 
1.814640 0.756525 0.870971 -88.254908 2.493279 100.734716 6.981673 -7.852402 -42.709126 -12.473230 -2.838107 57.768682 5.970282 15.619488 -37.145443 0.000000 -0.000000 0.000000 -0.485481 4.821585 -43.351404 4.282337 -3.541855 59.401956 3.201674 -12.288272 -34.215098 0.000000 -0.000000 0.000000 -1.296396 0.683474 26.497505 3.048644 -0.138945 -2.804969 1.517274 -1.749905 7.022189 0.081192 4.536685 -17.492915 2.993749 -1.402845 -21.154945 -17.685263 11.486818 6.006762 -48.801116 8.864432 8.641818 -6.885732 -38.732311 23.009748 -0.035795 -5.223837 -14.885026 19.752590 -8.808631 3.344659 52.527207 -10.402258 7.148200 -6.860316 19.324896 6.974362 6.825217 1.911379 -2.132163 
1.810606 0.757831 0.843180 -88.511400 2.622703 100.799822 7.930689 -7.412570 -46.692776 -13.221714 -0.346454 65.253590 5.975123 15.365903 -39.485334 0.000000 -0.000000 0.000000 -1.116335 5.158101 -46.521268 3.990619 -5.011274 65.989186 3.086083 -12.037874 -36.722815 0.000000 -0.000000 0.000000 -1.126478 0.348529 28.657984 2.984375 0.332764 -3.578842 1.228328 -1.615966 6.890906 0.155250 4.515167 -18.405168 3.029167 -1.592118 -20.679753 -20.310148 10.192276 5.606622 -48.538980 8.257623 8.115991 -3.470506 -37.728940 18.893895 1.163047 -4.548600 -13.944556 21.662211 -7.062463 3.565801 52.043390 -9.203568 7.021303 -7.476849 17.716853 5.487836 6.109474 1.829337 -2.633427 
1.804531 0.758538 0.817755 -89.114366 2.583654 100.369170 8.580803 -7.219306 -49.339473 -13.243574 2.100267 71.417119 5.800266 15.483516 -41.284547 0.000000 -0.000000 0.000000 -1.469523 5.927741 -48.967901 3.634642 -5.614484 72.336427 3.161723 -12.298116 -38.513780 0.000000 -0.000000 0.000000 -1.328629 0.204629 30.547459 2.870633 0.704946 -3.527699 0.878577 -1.498915 6.343409 0.369394 4.552435 -19.539190 2.795076 -1.881648 -20.138047 -23.226628 8.654378 4.459150 -48.446036 6.434024 7.661294 0.660223 -35.988589 13.805087 3.010056 -4.245544 -13.108766 23.851541 -4.847222 3.062328 51.694281 -6.749914 7.475575 -8.409427 15.411227 3.491445 5.216845 1.889596 -2.667483 
1.795683 0.757867 0.799062 -89.618203 2.373111 98.930296 8.088431 -7.661959 -49.481669 -12.747753 3.048322 76.047188 5.469121 15.513143 -42.709540 0.000000 -0.000000 0.000000 -1.688805 6.516561 -49.153957 2.430954 -6.070149 77.039397 3.322259 -12.381204 -40.070618 0.000000 -0.000000 0.000000 -1.325517 0.120245 32.507409 2.619655 0.605046 -2.651586 0.497033 -1.319766 5.542295 0.413330 5.194286 -21.015931 2.394577 -1.841444 -19.792605 -26.097072 5.974982 2.790750 -49.078321 3.487574 7.171833 5.409680 -33.827222 7.279897 5.737551 -3.718444 -12.948484 26.423688 -1.839856 2.438692 50.945357 -3.120477 7.953424 -9.417628 13.793324 0.315374 3.347730 1.572296 -2.622932 
1.784091 0.758018 0.788904 -90.129010 2.194886 98.090790 7.675196 -8.276029 -48.973923 -12.297300 3.423032 79.119865 4.944423 15.254837 -42.991463 0.000000 -0.000000 0.000000 -1.445129 7.210057 -48.711954 2.273088 -5.407172 80.017154 3.803499 -12.558918 -40.114669 0.000000 -0.000000 0.000000 -1.434406 -0.097281 33.017923 2.246757 0.536838 -3.130299 0.352539 -1.257804 5.522851 0.813502 4.492768 -21.369341 2.670127 -1.901425 -18.438273 -27.852749 3.359948 1.820075 -50.290273 0.138064 7.156229 8.880817 -32.782589 2.361896 10.054671 -2.408363 -13.217512 27.269359 0.939041 2.140409 51.242927 0.260978 9.029984 -10.196363 15.818665 -1.521447 0.896314 0.980926 -4.179025 
1.773344 0.761498 0.787199 -89.080488 3.527682 99.907325 9.663643 -9.319615 -50.339353 -12.552397 3.271616 80.199382 4.822670 15.703978 -43.119270 0.000000 -0.000000 0.000000 -0.452113 8.505195 -49.911633 2.046321 -6.444550 80.580635 3.846035 -14.215323 -39.690637 0.000000 -0.000000 0.000000 0.045034 -1.667277 29.892979 2.319165 1.142012 -5.746045 0.108049 -1.589946 6.674890 0.791838 4.323008 -20.963471 2.418260 -1.300547 -14.763972 -27.298155 1.912893 2.318062 -52.392909 -3.244310 7.812054 10.150796 -35.696629 -0.266546 11.135622 -0.940929 -16.014174 25.901163 1.213975 2.286392 52.631757 2.371956 10.986719 -11.750215 25.346736 -0.513980 1.246795 1.020260 -7.189573 
1.761057 0.762588 0.803114 -87.871527 4.242377 99.537191 9.550315 -10.832763 -46.990002 -11.686945 2.159363 77.775473 4.332429 15.768262 -42.160981 0.000000 -0.000000 0.000000 1.127573 8.370514 -46.607530 1.227892 -6.549880 77.822444 3.713815 -15.358279 -38.340722 0.000000 -0.000000 0.000000 1.865961 -2.990067 26.588874 2.690941 0.174178 -3.151759 -0.762826 -1.587294 6.429610 0.570782 4.997012 -21.502026 1.379465 -1.414684 -14.242109 -24.754199 0.037934 1.359831 -54.102351 -5.619709 9.629999 8.835729 -42.694579 2.107103 9.359821 -1.849766 -18.462677 23.191081 1.682875 0.279188 53.810898 3.245985 14.018675 -13.623160 40.163373 1.220089 2.239267 1.908303 -8.737984 
1.724897 0.757912 0.848521 -92.183457 1.013321 93.093014 1.207329 -7.540254 -30.141221 -9.297459 -1.234146 67.652504 3.950242 15.411477 -38.888851 0.000000 -0.000000 0.000000 1.704153 6.472417 -32.081799 0.019758 -0.949814 69.622671 4.018720 -12.414406 -34.887322 0.000000 -0.000000 0.000000 -1.534098 0.530584 30.485356 1.341991 -1.033132 -4.672511 0.308344 -1.479696 4.922999 -0.103656 4.886698 -18.197527 1.939745 0.119810 -13.352410 -22.089479 -1.587232 1.144886 -53.856407 -3.810672 9.750117 3.498958 -51.472936 11.193923 10.274503 -4.252775 -15.723455 20.097665 3.361246 -1.196091 55.591933 -0.273577 15.115808 -16.889646 55.594533 1.638296 1.885429 3.746315 -8.694360 
1.691881 0.759500 0.907065 -92.210169 1.289934 92.435597 1.194180 -4.740270 -21.307840 -9.562053 -4.160918 56.084080 2.282627 12.139057 -29.296566 0.000000 -0.000000 0.000000 2.777114 4.403359 -23.623954 0.344414 0.433567 57.868355 3.492187 -9.993625 -25.462374 0.000000 -0.000000 0.000000 -1.337057 0.453916 23.522000 1.323106 -1.573157 -3.203497 0.103657 -1.390599 5.181755 0.478650 4.735134 -13.962537 2.077663 0.905270 -10.164574 -18.166412 -0.878015 0.886273 -55.210181 -4.857409 11.030431 -2.516343 -55.636669 22.075275 10.470812 -6.454252 -13.517096 16.123276 1.071476 -2.323307 59.243308 -0.546834 16.266981 -17.997291 64.921794 3.592605 1.819186 4.665934 -11.902214 
